# xmcd CD database file
#
# Track frame offsets:
#	150
#	20850
#	40990
#	57174
#	72773
#	92696
#	111596
#	127812
#	143862
#	163094
#	184544
#	199394
#	216194
#
# Disc length: 3126 seconds
#
# Revision: 0
# Processed by: cddbd v1.5.1PL2 Copyright (c) Steve Scherf et al.
# Submitted via: CDex 1.50
#
DISCID=c20c340d
DTITLE=Craig Stewart - The Spirit Of Australia
DYEAR=2005
DGENRE=Country
TTITLE0=From A Country Town
TTITLE1=Taking Her Chances
TTITLE2=No Worries
TTITLE3=Tender Moments
TTITLE4=The River
TTITLE5=Mustering Time
TTITLE6=Honour Thy Name
TTITLE7=Drive Away The Night
TTITLE8=Hilary and The Star Hotel
TTITLE9=The Woman On The Land
TTITLE10=Livin' Out In The Country
TTITLE11=The Spirit Of Australia
TTITLE12=Missing You Tonight
EXTD=YEAR: 2005
EXTT0=
EXTT1=
EXTT2=
EXTT3=
EXTT4=
EXTT5=
EXTT6=
EXTT7=
EXTT8=
EXTT9=
EXTT10=
EXTT11=
EXTT12=
PLAYORDER=
